<?xml version="1.0" encoding="UTF-8" standalone="no"?>
<!DOCTYPE svg PUBLIC "-//W3C//DTD SVG 1.1//EN" "http://www.w3.org/Graphics/SVG/1.1/DTD/svg11.dtd">
<svg width="100%" height="100%" viewBox="0 0 307 69" version="1.1" xmlns="http://www.w3.org/2000/svg" xmlns:xlink="http://www.w3.org/1999/xlink" xml:space="preserve" xmlns:serif="http://www.serif.com/" style="fill-rule:evenodd;clip-rule:evenodd;stroke-linejoin:round;stroke-miterlimit:2;">
    <g transform="matrix(1,0,0,1,-22.8,-14)">
        <g id="XMLID_1803_">
            <path id="XMLID_1805_" d="M57,82.7C47.8,82.7 39.2,79.1 32.8,72.7C26.3,66.2 22.8,57.6 22.8,48.5C22.8,39.4 26.4,30.7 32.8,24.3C39.3,17.8 47.9,14.3 57,14.3C66.2,14.3 74.8,17.9 81.2,24.3C87.7,30.8 91.2,39.4 91.2,48.5C91.2,57.6 87.6,66.3 81.2,72.7C74.8,79.1 66.2,82.7 57,82.7Z" style="fill:rgb(67,138,201);fill-rule:nonzero;"/>
            <g>
                <path d="M49.3,32.1L49.3,64.5L51.2,64.5L51.2,49L53.4,49L53.4,47.1L51.2,47.1L51.2,34L62.8,34L62.8,62.7L64.7,62.7L64.7,32.1L49.3,32.1Z" style="fill:white;fill-rule:nonzero;"/>
                <rect x="57" y="62.7" width="5.9" height="1.9" style="fill:white;"/>
            </g>
        </g>
        <g id="XMLID_351_">
            <path id="XMLID_1801_" d="M114.8,39.3L128.5,39.3L127.5,42.9L117.7,42.9L116.7,46.7L125.3,46.7L124.3,50.3L115.7,50.3L113.8,57.3L109.8,57.3L114.8,39.3Z" style="fill:rgb(67,138,201);fill-rule:nonzero;"/>
            <path id="XMLID_1799_" d="M134.9,51.5C134.9,50.6 135.1,49.6 135.3,48.6L137.8,39.2L141.8,39.2L139.2,48.9C139,49.5 138.9,50.1 138.9,50.9C138.9,52.7 140,53.9 142,53.9C143.2,53.9 144.2,53.5 144.9,52.8C145.7,52 146.3,50.9 146.7,49.4L149.4,39.2L153.4,39.2L150.5,50C149.9,52.3 149,54.1 147.7,55.4C146.2,56.9 144.2,57.6 141.6,57.6C137.4,57.6 134.9,55.4 134.9,51.5Z" style="fill:rgb(67,138,201);fill-rule:nonzero;"/>
            <path id="XMLID_1797_" d="M166.7,42.9L161.2,42.9L162.2,39.2L177.2,39.2L176.2,42.9L170.7,42.9L166.8,57.3L162.8,57.3L166.7,42.9Z" style="fill:rgb(67,138,201);fill-rule:nonzero;"/>
            <path id="XMLID_1795_" d="M182.9,51.5C182.9,50.6 183.1,49.6 183.3,48.6L185.8,39.2L189.8,39.2L187.2,48.9C187,49.5 186.9,50.1 186.9,50.9C186.9,52.7 188,53.9 190,53.9C191.2,53.9 192.2,53.5 192.9,52.8C193.7,52 194.3,50.9 194.7,49.4L197.4,39.2L201.4,39.2L198.6,50C198,52.3 197.1,54.1 195.8,55.4C194.3,56.9 192.3,57.6 189.7,57.6C185.5,57.6 182.9,55.4 182.9,51.5Z" style="fill:rgb(67,138,201);fill-rule:nonzero;"/>
            <path id="XMLID_1611_" d="M215.7,51.5L212.7,51.5L211.2,57.3L207.2,57.3L212.1,39.2L218.7,39.2C221.4,39.2 223.2,39.8 224.4,41C225.3,41.9 225.8,43.2 225.8,44.6C225.8,46.3 225.2,47.8 224.1,48.9C223.4,49.6 222.2,50.6 219.9,51.1L223,57.3L218.5,57.3L215.7,51.5ZM217.2,48C218.7,48 220.1,47.6 220.8,46.8C221.3,46.3 221.5,45.7 221.5,45C221.5,44.4 221.3,43.9 220.9,43.6C220.4,43.1 219.5,42.9 218.3,42.9L215,42.9L213.6,48.1L217.2,48.1L217.2,48Z" style="fill:rgb(67,138,201);fill-rule:nonzero;"/>
            <path id="XMLID_1608_" d="M237.2,39.3L250.7,39.3L249.7,42.8L240.2,42.8L239.2,46.5L247.6,46.5L246.6,50L238.2,50L237.2,53.8L246.9,53.8L245.9,57.3L232.3,57.3L237.2,39.3Z" style="fill:rgb(67,138,201);fill-rule:nonzero;"/>
            <path id="XMLID_801_" d="M263.4,39.3L265.4,39.3L265.4,55.5L275.6,55.5L275.6,57.4L263.4,57.4L263.4,39.3Z" style="fill:rgb(67,138,201);fill-rule:nonzero;"/>
            <path id="XMLID_504_" d="M292.9,39.1L294.8,39.1L303,57.3L300.8,57.3L298.7,52.5L288.9,52.5L286.8,57.3L284.7,57.3L292.9,39.1ZM297.9,50.7L293.8,41.5L289.7,50.7L297.9,50.7Z" style="fill:rgb(67,138,201);fill-rule:nonzero;"/>
            <path id="XMLID_352_" d="M312.7,39.3L320.4,39.3C322.5,39.3 324.1,39.9 325.1,40.9C325.8,41.7 326.3,42.6 326.3,43.8L326.3,43.9C326.3,46.2 324.9,47.5 323.4,48.1C325.5,48.7 327.3,50 327.3,52.5L327.3,52.6C327.3,55.7 324.7,57.5 320.7,57.5L312.7,57.5L312.7,39.3ZM324.2,44C324.2,42.2 322.8,41.1 320.2,41.1L314.7,41.1L314.7,47.3L320,47.3C322.5,47.3 324.2,46.2 324.2,44ZM320.4,49.1L314.7,49.1L314.7,55.5L320.8,55.5C323.5,55.5 325.2,54.3 325.2,52.3L325.2,52.2C325.2,50.3 323.6,49.1 320.4,49.1Z" style="fill:rgb(67,138,201);fill-rule:nonzero;"/>
        </g>
    </g>
</svg>
